<svg width="1500" height="1985" viewBox="0 0 1500 1985" fill="none" xmlns="http://www.w3.org/2000/svg">
<path fill-rule="evenodd" clip-rule="evenodd" d="M0.961881 63.9812C0.996258 41.585 1.01345 30.3869 5.38472 21.8384C9.22981 14.319 15.3563 8.20944 22.8864 4.38525C31.447 0.0377308 42.6451 0.0516351 65.0412 0.0794439L225.025 0.278091H975.701C1265.1 0.278091 1499.7 234.881 1499.7 524.278V1460.05C1499.7 1749.45 1265.1 1984.05 975.701 1984.05H64C41.5979 1984.05 30.3968 1984.05 21.8404 1979.69C14.3139 1975.85 8.19467 1969.73 4.35974 1962.21C0 1953.65 0 1942.45 0 1920.05V1600.05C0 1577.65 0 1566.45 4.35974 1557.89C8.19467 1550.36 14.3139 1544.24 21.8404 1540.41C30.3968 1536.05 41.5979 1536.05 64 1536.05H975.701C1017.67 1536.05 1051.7 1502.02 1051.7 1460.05V1278.78C1051.7 1256.38 1051.7 1245.17 1047.34 1236.62C1043.51 1229.09 1037.39 1222.97 1029.86 1219.14C1021.3 1214.78 1010.1 1214.78 987.701 1214.78H524C234.603 1214.78 -1.52588e-05 980.175 0 690.778V690.633L0.961881 63.9812ZM448 690.83V690.778L448.343 512.155C448.386 489.792 448.408 478.61 452.773 470.071C456.614 462.559 462.731 456.453 470.25 452.627C478.798 448.278 489.98 448.278 512.343 448.278H975.701C1017.67 448.278 1051.7 482.304 1051.7 524.278V702.778C1051.7 725.18 1051.7 736.381 1047.34 744.938C1043.51 752.464 1037.39 758.583 1029.86 762.418C1021.3 766.778 1010.1 766.778 987.701 766.778H524C482.047 766.778 448.032 732.784 448 690.839L448 690.83Z" fill="#2E2E2E"/>
</svg>
