<svg width="1422" height="1906" viewBox="0 0 1422 1906" fill="none" xmlns="http://www.w3.org/2000/svg">
<path fill-rule="evenodd" clip-rule="evenodd" d="M370 651.73C370 651.76 370 651.79 370 651.821C370.049 715.292 421.518 766.73 485 766.73H1051.7V1136.73H485C217.142 1136.73 -1.52588e-05 919.588 0 651.73V651.615L1.0002 0L186.025 0.229715H936.701C1204.56 0.229715 1421.7 217.372 1421.7 485.23V1421C1421.7 1688.86 1204.56 1906 936.701 1906H0V1536H936.701C1000.21 1536 1051.7 1484.51 1051.7 1421V485.23C1051.7 421.717 1000.21 370.23 936.701 370.23H370.541L370 651.73Z" fill="#2E2E2E"/>
</svg>
