<svg width="1500" height="1985" viewBox="0 0 1500 1985" fill="none" xmlns="http://www.w3.org/2000/svg">
<path fill-rule="evenodd" clip-rule="evenodd" d="M1.06009 0L225.025 0.278091H975.701C1265.1 0.278091 1499.7 234.881 1499.7 524.278V1460.05C1499.7 1749.45 1265.1 1984.05 975.701 1984.05H0V1536.05H975.701C1017.67 1536.05 1051.7 1502.02 1051.7 1460.05V1214.78H524C234.603 1214.78 -1.52588e-05 980.175 0 690.778V690.633L1.06009 0ZM448 690.83V690.778L448.466 448.278H975.701C1017.67 448.278 1051.7 482.304 1051.7 524.278V766.778H524C482.047 766.778 448.032 732.784 448 690.839L448 690.83Z" fill="#2E2E2E"/>
</svg>
