<?xml version="1.0" standalone="no"?>
<!DOCTYPE svg PUBLIC "-//W3C//DTD SVG 20010904//EN"
 "http://www.w3.org/TR/2001/REC-SVG-20010904/DTD/svg10.dtd">
<svg version="1.0" xmlns="http://www.w3.org/2000/svg"
 width="1906.000000pt" height="1906.000000pt" viewBox="0 0 1906.000000 1906.000000"
 preserveAspectRatio="xMidYMid meet">
<metadata>
Created by potrace 1.14, written by Peter Selinger 2001-2017
</metadata>
<g transform="translate(0.000000,1906.000000) scale(0.100000,-0.100000)"
fill="#000000" stroke="none">
<path d="M2429 18307 c-4 -6086 -4 -6129 16 -6267 2 -14 6 -46 9 -72 10 -77
17 -132 20 -148 1 -8 6 -37 10 -65 4 -27 11 -70 16 -95 6 -25 12 -58 15 -75
31 -189 162 -635 240 -820 59 -138 160 -363 183 -407 107 -198 132 -243 180
-323 146 -239 342 -506 522 -710 48 -54 354 -360 410 -410 64 -57 159 -137
190 -160 15 -11 74 -55 131 -99 392 -297 884 -555 1364 -714 138 -45 315 -97
366 -107 11 -2 28 -6 37 -9 9 -3 28 -7 42 -10 14 -3 57 -12 95 -20 108 -23
119 -25 295 -51 195 -28 239 -33 385 -43 61 -4 1431 -7 3046 -7 l2936 0 -2
-1490 c-1 -819 -5 -1501 -8 -1515 -4 -13 -9 -42 -13 -65 -3 -22 -19 -80 -35
-129 -136 -414 -501 -724 -918 -782 -20 -3 -49 -7 -66 -9 -16 -2 -2155 -4
-4752 -4 l-4723 -1 0 -1850 0 -1850 4853 3 c2668 2 4870 6 4893 9 23 3 70 9
105 13 71 7 209 24 252 31 77 12 129 21 167 29 14 3 52 10 85 15 156 28 691
185 719 211 6 5 15 9 22 9 33 0 583 254 629 290 6 4 33 20 60 35 28 15 69 41
93 56 24 16 45 29 48 29 19 0 347 234 489 348 283 228 606 561 812 837 41 55
80 107 86 115 135 172 367 583 510 901 88 196 246 682 272 838 3 19 8 37 10
41 3 5 16 72 46 240 14 82 27 177 34 250 4 36 8 76 11 89 2 14 7 79 11 145 9
153 10 9821 0 9976 -7 120 -11 159 -28 300 -16 130 -16 131 -39 257 -12 65
-24 129 -27 143 -7 42 -82 339 -99 394 -16 50 -41 126 -52 156 -3 8 -6 20 -8
25 -1 6 -12 35 -23 65 -11 30 -27 75 -36 100 -17 45 -26 67 -64 152 -11 26
-21 50 -21 52 0 20 -194 399 -265 518 -366 614 -849 1130 -1440 1539 -96 67
-290 189 -300 189 -4 0 -19 8 -33 19 -48 33 -314 168 -447 226 -159 70 -427
172 -500 190 -5 1 -17 5 -25 8 -43 17 -326 90 -400 103 -14 3 -41 9 -60 14
-19 5 -51 11 -70 14 -19 3 -58 10 -87 15 -29 6 -90 15 -135 21 -46 5 -93 12
-105 14 -12 3 -62 8 -110 11 -48 4 -104 9 -123 12 -19 3 -2210 7 -4867 8
l-4833 3 -1 -751z m9489 -2958 c135 -19 175 -29 286 -71 363 -140 627 -455
712 -850 17 -78 18 -178 19 -1558 l0 -1475 -2870 -1 c-1578 -1 -2897 2 -2930
7 -218 31 -385 98 -551 219 -134 98 -285 282 -349 425 -15 33 -33 71 -40 85
-7 14 -26 75 -41 135 l-29 110 0 1475 c-1 811 1 1482 3 1491 3 15 229 17 2865
16 1574 0 2890 -3 2925 -8z"/>
</g>
</svg>
